<svg xmlns="http://www.w3.org/2000/svg" width="360" height="360" viewBox="0 0 360 360" font-family="sans-serif" font-size="11">
<title>ROC, calibrated ensemble</title>
<rect x="48" y="48" width="264" height="264" fill="none" stroke="#444"/>
<text x="180.0" y="32" text-anchor="middle" font-size="13">ROC, calibrated ensemble</text>
<text x="180.0" y="348" text-anchor="middle">false positive rate</text>
<text x="14" y="180.0" text-anchor="middle" transform="rotate(-90 14 180.0)">true positive rate</text>
<text x="48.0" y="326" text-anchor="middle">0</text>
<text x="42" y="316.0" text-anchor="end">0</text>
<text x="180.0" y="326" text-anchor="middle">0.5</text>
<text x="42" y="184.0" text-anchor="end">0.5</text>
<text x="312.0" y="326" text-anchor="middle">1</text>
<text x="42" y="52.0" text-anchor="end">1</text>
<polyline points="48.0,312.0 312.0,48.0" fill="none" stroke="#999" stroke-dasharray="4 3"/>
<polyline points="48.0,312.0 48.0,178.5 48.6,94.6 49.8,82.6 51.1,79.9 52.4,77.8 53.7,75.6 55.0,73.5 56.4,71.9 57.7,71.3 59.0,71.0 60.4,70.5 61.7,70.2 63.1,70.0 64.4,69.7 65.7,69.2 67.1,69.2 68.4,68.9 69.7,68.9 71.1,68.6 72.4,68.6 73.8,68.1 75.1,68.1 76.4,67.6 77.8,67.0 79.1,66.8 80.4,66.8 81.8,65.7 83.1,64.6 84.4,63.5 85.8,63.5 87.1,63.5 88.4,63.5 89.8,63.3 91.1,63.3 92.5,63.3 93.8,63.3 95.1,63.3 96.5,63.3 97.8,63.3 99.2,63.3 100.5,62.7 101.8,62.7 103.2,62.7 104.5,62.5 105.8,62.5 107.2,62.5 108.5,62.2 109.9,61.9 111.2,61.7 112.5,61.7 113.9,61.4 115.2,60.9 116.5,60.6 117.9,60.1 119.2,60.1 120.6,59.8 121.9,59.5 123.2,59.3 124.6,59.3 125.9,59.0 127.2,59.0 128.6,59.0 129.9,58.7 131.3,58.2 132.6,58.2 133.9,57.9 135.3,57.4 136.6,57.4 137.9,57.1 139.3,56.6 140.6,56.6 142.0,56.3 143.3,56.3 144.6,56.3 146.0,56.3 147.3,56.0 148.6,56.0 150.0,55.8 151.3,55.8 152.7,55.8 154.0,55.8 155.3,55.5 156.7,55.5 158.0,55.2 159.4,55.2 160.7,55.2 162.0,55.2 163.4,55.0 164.7,55.0 166.1,55.0 167.4,54.7 168.7,54.7 170.1,54.7 171.4,54.7 172.7,54.4 174.1,54.4 175.4,54.2 176.8,53.6 178.1,53.6 179.4,53.4 180.8,53.4 182.1,53.4 183.5,53.4 184.8,53.4 186.1,53.4 187.5,53.1 188.8,53.1 190.1,53.1 191.5,53.1 192.8,53.1 194.2,53.1 195.5,53.1 196.8,53.1 198.2,53.1 199.5,53.1 200.9,53.1 202.2,53.1 203.5,53.1 204.9,52.8 206.2,52.8 207.6,52.8 208.9,52.8 210.2,52.8 211.6,52.8 212.9,52.8 214.3,52.8 215.6,52.8 216.9,52.6 218.3,52.6 219.6,52.3 220.9,52.3 222.3,52.3 223.6,52.3 225.0,52.3 226.3,52.3 227.6,52.3 229.0,52.3 230.3,52.0 231.7,52.0 233.0,51.8 234.3,51.8 235.7,51.8 237.0,51.8 238.4,51.8 239.7,51.5 241.0,51.5 242.4,51.2 243.7,51.2 245.1,51.2 246.4,50.7 247.7,50.7 249.1,50.7 250.4,50.7 251.7,50.7 253.1,50.7 254.4,50.4 255.8,50.1 257.1,49.9 258.4,49.6 259.8,49.6 261.1,49.6 262.5,49.6 263.8,49.3 265.1,49.3 266.5,49.3 267.8,49.3 269.1,49.3 270.5,49.3 271.8,49.3 273.2,49.1 274.5,49.1 275.8,49.1 277.2,49.1 278.5,49.1 279.9,49.1 281.2,49.1 282.5,49.1 283.9,49.1 285.2,49.1 286.6,48.8 287.9,48.8 289.2,48.8 290.6,48.8 291.9,48.8 293.3,48.8 294.6,48.8 295.9,48.8 297.3,48.8 298.6,48.5 299.9,48.3 301.3,48.3 302.6,48.0 304.0,48.0 305.3,48.0 306.6,48.0 308.0,48.0 309.3,48.0 310.7,48.0 312.0,48.0" fill="none" stroke="#1f5fa8" stroke-width="2"/>
</svg>
